<?xml version="1.0" encoding="utf-8"?>
<!-- Generator: Adobe Illustrator 27.1.1, SVG Export Plug-In . SVG Version: 6.00 Build 0)  -->
<svg version="1.1" xmlns="http://www.w3.org/2000/svg" xmlns:xlink="http://www.w3.org/1999/xlink" x="0px" y="0px"
	 viewBox="0 0 235 235" style="enable-background:new 0 0 235 235;" xml:space="preserve">
<style type="text/css">
	.st0{fill:#FCEC10;}
	.st1{fill:#EB2127;}
	.st2{fill:#394FA2;}
	.st3{fill:#5CBA47;}
	.st4{fill:#3A4FA1;}
	.st5{fill:#ED1C24;}
	.st6{display:none;}
	.st7{display:inline;fill:#EB2127;}
	.st8{display:inline;fill:#3A4FA1;}
	.st9{display:inline;fill:#5DB847;}
</style>
<g id="Layer_3">
	<ellipse transform="matrix(0.7071 -0.7071 0.7071 0.7071 -64.6279 123.9126)" class="st0" cx="117.3" cy="140" rx="50" ry="50"/>
</g>
<g id="Layer_2">
	<polygon class="st1" points="117.1,164 119.9,164 118.5,163.2 	"/>
	<path class="st2" d="M102.6,131.1l7.9-13.7l7.9,4.6l7.9-4.6l7.9,13.7l0.7,0.4V15.3c-5.8-0.8-11.8-1.3-17.8-1.3
		c-6.1,0-12,0.4-17.8,1.3V133L102.6,131.1z"/>
	<path class="st3" d="M134.4,131.1l9.9,17.2l-25.8,14.9l1.4,0.8l97,56c7.4-9.3,13.5-19.7,18-30.8l-99.8-57.6L134.4,131.1z"/>
	<polygon class="st4" points="102.6,131.1 118.5,122 110.6,117.4 	"/>
	<path class="st5" d="M118.5,163.2l25.8-14.9l-9.9-17.2l-7.9-13.7l-7.9,4.6l-15.9,9.2l-3.2,1.9L0.1,190.4
		c4.7,11.1,10.9,21.4,18.3,30.6l98.7-57L118.5,163.2z"/>
</g>
<g id="Layer_4" class="st6">
	<rect x="99.4" y="6.4" class="st7" width="35.7" height="157.6"/>
	<rect x="152" y="93.4" transform="matrix(0.5 -0.866 0.866 0.5 -64.2133 233.2398)" class="st8" width="35.7" height="157.6"/>
	<rect x="49.3" y="93.4" transform="matrix(0.5 0.866 -0.866 0.5 182.7233 27.9744)" class="st9" width="35.7" height="157.6"/>
</g>
<g id="Layer_1">
	<circle class="st0" cx="117.3" cy="141.1" r="37.5"/>
</g>
</svg>
